<?xml version="1.0" encoding="utf-8"?>
<!-- Generator: Adobe Illustrator 19.2.1, SVG Export Plug-In . SVG Version: 6.00 Build 0)  -->
<svg version="1.1" id="Layer_1" xmlns="http://www.w3.org/2000/svg" xmlns:xlink="http://www.w3.org/1999/xlink" x="0px" y="0px"
	 width="52px" height="50px" viewBox="0 0 52 50" style="enable-background:new 0 0 52 50;" xml:space="preserve">
<style type="text/css">
	.st0{display:none;}
	.st1{display:inline;}
	.st2{fill:#999999;}
	.st3{fill:#FFFFFF;stroke:#BDBDBD;stroke-width:2;stroke-miterlimit:10;}
	.st4{fill:#DDDDDD;}
</style>
<g id="Layer_1_1_" class="st0">
	<g id="XMLID_2726_" class="st1">
		<path id="XMLID_2727_" class="st2" d="M37.4,4.8c-8.5,0-11.4,7-11.4,7s-2.9-7-11.4-7S1,12.3,1,18.5c0,10.4,25,26.3,25,26.3
			s25-15.9,25-26.3C51,12.3,45.9,4.8,37.4,4.8z"/>
	</g>
</g>
<g id="Layer_2" class="st0">
	<g id="XMLID_48_" class="st1">
		<path id="XMLID_49_" class="st2" d="M47,24.8C47,13.9,38.7,5,28.1,3.9c-0.7-0.1-1.4-0.1-2.1-0.1s-1.4,0-2.1,0.1
			C13.3,5,5,13.9,5,24.8s8.3,19.8,18.9,20.9c0.7,0.1,1.4,0.1,2.1,0.1s1.4,0,2.1-0.1C38.7,44.6,47,35.6,47,24.8z M26,41.4
			c-1.1,0-2.3-0.1-3.4-0.3C15,39.5,9.3,32.8,9.3,24.8c0-9.2,7.5-16.7,16.7-16.7v16.7h16.7C42.7,34,35.2,41.4,26,41.4z"/>
	</g>
</g>
<g id="Layer_3">
	<g id="XMLID_2681_">
		<g id="XMLID_2705_">
			<rect id="XMLID_2723_" x="1.2" y="4.8" class="st3" width="49.6" height="40"/>
			<g id="XMLID_2708_">
				<g id="XMLID_2720_">
					<rect id="XMLID_2722_" x="8.9" y="11" class="st4" width="6.6" height="4.7"/>
					<rect id="XMLID_2721_" x="18.8" y="11" class="st4" width="24.8" height="4.7"/>
				</g>
				<g id="XMLID_2717_">
					<rect id="XMLID_2719_" x="8.9" y="18.4" class="st4" width="6.6" height="4.7"/>
					<rect id="XMLID_2718_" x="18.8" y="18.4" class="st4" width="24.8" height="4.7"/>
				</g>
				<g id="XMLID_2714_">
					<rect id="XMLID_2716_" x="8.9" y="25.8" class="st4" width="6.6" height="4.7"/>
					<rect id="XMLID_2715_" x="18.8" y="25.8" class="st4" width="24.8" height="4.7"/>
				</g>
				<g id="XMLID_2711_">
					<rect id="XMLID_2713_" x="8.9" y="33.3" class="st4" width="6.6" height="4.7"/>
					<rect id="XMLID_2712_" x="18.8" y="33.3" class="st4" width="24.8" height="4.7"/>
				</g>
			</g>
		</g>
	</g>
</g>
<g id="Layer_4" class="st0">
	<g id="XMLID_28_" class="st1">
		<g id="XMLID_29_">
			<polygon id="XMLID_31_" class="st2" points="6,42.3 6,4.8 3.5,4.8 3.5,44.8 3.5,44.8 6,44.8 48.5,44.8 48.5,42.3 			"/>
			<polygon id="XMLID_30_" class="st2" points="48.5,39.8 8.5,39.8 8.5,12.3 18.5,24.8 31,19.7 41,29.8 48.5,27.3 			"/>
		</g>
	</g>
</g>
</svg>
